<svg width="821" height="473" viewBox="0 0 821 473" fill="none" xmlns="http://www.w3.org/2000/svg">
    <path
            d="M56.6849 154.136C79.0652 115.523 126.694 99.6168 167.785 117.031L196.6 129.243C214.439 136.802 233.939 139.584 253.18 137.312L418.324 117.816C436.284 115.696 453.459 109.239 468.367 99.0013L556.391 38.5581C579.554 22.6531 608.893 18.6921 635.444 27.8853L746.018 66.1712C772.823 75.4525 793.555 97.0206 801.77 124.172L825.434 202.39C830.654 219.642 830.481 238.078 824.939 255.229L812.323 294.273C799.328 334.488 759.713 359.903 717.741 354.952L657.686 347.866C631.523 344.78 605.111 351.057 583.134 365.585L487.749 428.641C459.31 447.441 422.602 448.234 393.377 430.682L309.687 380.416C292.348 370.002 272.503 364.5 252.277 364.5H146.706C116.057 364.5 87.5894 348.642 71.4571 322.582L41.3152 273.892C24.1324 246.135 23.6252 211.173 39.9957 182.929L56.6849 154.136Z"
      fill="white" stroke="#EF9636" stroke-width="23"/>
    <path
            d="M134.512 214.028C136.745 213.851 138.765 214.534 140.572 216.076C142.465 217.518 143.507 219.449 143.699 221.868L150.08 302.536C150.272 304.955 149.55 307.072 147.914 308.886C146.272 310.608 144.287 311.561 141.961 311.745C139.356 311.951 137.2 311.326 135.493 309.869C133.779 308.319 132.826 306.335 132.635 303.916L126.253 223.248C126.062 220.829 126.741 218.762 128.291 217.048C129.833 215.241 131.907 214.234 134.512 214.028ZM196.339 209.137C198.944 208.931 201.104 209.603 202.818 211.152C204.525 212.609 205.474 214.547 205.665 216.966L212.047 297.634C212.238 300.053 211.562 302.166 210.02 303.973C208.564 305.68 206.486 306.64 203.788 306.854C201.555 307.03 199.492 306.398 197.599 304.956C195.792 303.414 194.792 301.433 194.601 299.014L188.22 218.346C188.028 215.927 188.754 213.856 190.397 212.135C192.032 210.32 194.013 209.321 196.339 209.137ZM137.306 254.674L199.552 249.75L200.821 265.8L138.576 270.724L137.306 254.674ZM234.405 206.126L281.159 202.427C283.578 202.236 285.641 202.868 287.348 204.325C289.14 205.681 290.132 207.569 290.324 209.988C290.508 212.314 289.821 214.288 288.264 215.909C286.793 217.429 284.847 218.286 282.428 218.477L243.35 221.568L244.419 219.096L246.572 246.311L245.367 245.283L278.025 242.7C280.444 242.508 282.507 243.141 284.214 244.597C286.006 245.954 286.998 247.841 287.19 250.26C287.374 252.586 286.687 254.56 285.13 256.181C283.659 257.702 281.714 258.558 279.295 258.749L247.055 261.3L247.665 260.128L249.895 288.32L248.679 287.152L287.617 284.072C290.037 283.881 292.103 284.56 293.817 286.109C295.617 287.559 296.602 289.353 296.771 291.493C296.955 293.819 296.269 295.793 294.712 297.414C293.248 299.028 291.306 299.93 288.887 300.122L242.133 303.82C239.714 304.012 237.605 303.383 235.805 301.934C234.09 300.384 233.138 298.4 232.946 295.981L226.565 215.313C226.373 212.893 227.006 210.83 228.463 209.124C230.005 207.316 231.986 206.317 234.405 206.126ZM366.067 277.585C368.486 277.394 370.549 278.026 372.256 279.483C374.049 280.839 375.041 282.727 375.232 285.146C375.416 287.472 374.733 289.492 373.184 291.206C371.72 292.82 369.778 293.723 367.359 293.914L322.001 297.502C319.582 297.694 317.472 297.065 315.672 295.615C313.958 294.066 313.005 292.081 312.814 289.662L306.433 208.994C306.241 206.575 306.92 204.509 308.47 202.794C310.012 200.987 312.086 199.98 314.691 199.774C316.924 199.598 318.944 200.281 320.752 201.823C322.644 203.265 323.687 205.195 323.878 207.614L329.829 282.839L326.571 280.71L366.067 277.585ZM424.461 191.091C429.3 190.708 433.923 191.747 438.33 194.207C442.831 196.659 446.572 200.155 449.552 204.694C452.533 209.233 454.255 214.434 454.719 220.296C455.175 226.064 454.288 231.424 452.059 236.375C449.829 241.327 446.688 245.414 442.636 248.637C438.67 251.759 434.268 253.512 429.43 253.895L403.75 255.926L404.947 253.303L407.232 282.193C407.424 284.612 406.841 286.718 405.485 288.511C404.121 290.21 402.23 291.156 399.811 291.347C397.485 291.531 395.515 290.891 393.901 289.427C392.28 287.87 391.374 285.882 391.182 283.463L384.801 202.795C384.61 200.376 385.242 198.313 386.699 196.606C388.241 194.799 390.222 193.799 392.641 193.608L424.461 191.091ZM428.171 237.984C429.939 237.844 431.601 236.964 433.158 235.343C434.715 233.722 435.96 231.704 436.893 229.289C437.818 226.782 438.177 224.226 437.971 221.62C437.758 218.922 437.001 216.454 435.7 214.216C434.4 211.979 432.857 210.228 431.072 208.965C429.279 207.609 427.499 207.001 425.731 207.141L399.772 209.194L401.248 206.549L404.064 242.138L402.352 240.027L428.171 237.984ZM516.118 183.7C517.42 183.597 518.799 183.862 520.253 184.496C521.794 185.029 522.98 185.825 523.813 186.883L561.856 236.397L554.856 236.67L585.5 182.003C587.069 179.351 589.249 177.914 592.041 177.694C594.274 177.517 596.337 178.15 598.23 179.591C600.122 181.033 601.168 183.01 601.367 185.522L607.76 266.33C607.951 268.749 607.322 270.859 605.873 272.658C604.416 274.365 602.385 275.322 599.78 275.528C597.175 275.734 594.972 275.112 593.172 273.663C591.458 272.114 590.505 270.129 590.314 267.71L585.114 201.975L590.656 202.801L565.619 248.458C564.862 249.547 563.862 250.516 562.619 251.363C561.468 252.203 560.238 252.628 558.928 252.638C557.726 252.827 556.444 252.601 555.082 251.959C553.814 251.311 552.72 250.508 551.802 249.551L521.811 209.511L524.855 201.827L530.441 272.446C530.632 274.866 530.05 276.971 528.694 278.764C527.33 280.463 525.439 281.409 523.02 281.6C520.694 281.784 518.724 281.144 517.11 279.68C515.489 278.123 514.583 276.135 514.391 273.716L507.999 192.909C507.815 190.582 508.494 188.516 510.036 186.709C511.671 184.894 513.699 183.891 516.118 183.7ZM630.2 174.815L676.953 171.117C679.373 170.925 681.436 171.558 683.142 173.015C684.935 174.371 685.927 176.258 686.118 178.678C686.302 181.004 685.616 182.977 684.059 184.598C682.587 186.119 680.642 186.975 678.223 187.167L639.145 190.258L640.214 187.786L642.366 215.001L641.162 213.973L673.82 211.389C676.239 211.198 678.302 211.831 680.009 213.287C681.801 214.643 682.793 216.531 682.984 218.95C683.168 221.276 682.482 223.25 680.925 224.871C679.454 226.392 677.508 227.248 675.089 227.439L642.85 229.99L643.46 228.818L645.69 257.01L644.474 255.842L683.412 252.762C685.831 252.57 687.898 253.249 689.612 254.799C691.412 256.248 692.397 258.043 692.566 260.183C692.75 262.509 692.063 264.483 690.506 266.104C689.042 267.718 687.101 268.62 684.682 268.812L637.928 272.51C635.509 272.701 633.399 272.073 631.599 270.623C629.885 269.074 628.932 267.089 628.741 264.67L622.36 184.002C622.168 181.583 622.801 179.52 624.257 177.813C625.8 176.006 627.78 175.007 630.2 174.815ZM715.076 235.37C711.913 235.621 710.052 233.989 709.493 230.475L701.383 179.436C700.969 176.567 701.522 174.089 703.042 172.002C704.655 169.908 706.857 168.751 709.648 168.53C712.44 168.31 714.797 169.106 716.719 170.92C718.641 172.734 719.577 175.094 719.526 178.001L719.681 229.67C719.682 233.227 718.147 235.128 715.076 235.37ZM716.539 266.291C713.841 266.505 711.693 265.973 710.094 264.695C708.58 263.316 707.717 261.278 707.503 258.58L707.316 256.207C707.102 253.509 707.638 251.407 708.923 249.901C710.294 248.294 712.329 247.385 715.027 247.171L716.841 247.028C719.54 246.814 721.645 247.397 723.159 248.775C724.758 250.053 725.664 252.041 725.878 254.739L726.065 257.112C726.279 259.81 725.7 261.962 724.329 263.569C723.044 265.075 721.052 265.934 718.354 266.148L716.539 266.291Z"
            fill="#EF9636"/>
</svg>